<mxfile host="app.diagrams.net" agent="Mozilla/5.0 (Windows NT 10.0; Win64; x64) AppleWebKit/537.36 (KHTML, like Gecko) Chrome/129.0.0.0 Safari/537.36" version="24.7.14">
  <diagram name="PÃ¡gina-1" id="DgtuqaFY08zAPb85_xWK">
    <mxGraphModel dx="526" dy="1387" grid="0" gridSize="10" guides="1" tooltips="1" connect="1" arrows="1" fold="1" page="0" pageScale="1" pageWidth="827" pageHeight="1169" math="0" shadow="0">
      <root>
        <mxCell id="0" />
        <mxCell id="1" parent="0" />
        <mxCell id="xgFvjefHa8hZQ6WshzcK-66" value="" style="rounded=0;whiteSpace=wrap;html=1;" vertex="1" parent="1">
          <mxGeometry x="604" y="154" width="223" height="39" as="geometry" />
        </mxCell>
        <mxCell id="xgFvjefHa8hZQ6WshzcK-1" value="" style="rounded=0;whiteSpace=wrap;html=1;" vertex="1" parent="1">
          <mxGeometry x="472" y="-71" width="1016" height="618" as="geometry" />
        </mxCell>
        <mxCell id="xgFvjefHa8hZQ6WshzcK-2" value="" style="rounded=1;whiteSpace=wrap;html=1;" vertex="1" parent="1">
          <mxGeometry x="472" y="-71" width="1015" height="58" as="geometry" />
        </mxCell>
        <mxCell id="xgFvjefHa8hZQ6WshzcK-4" style="edgeStyle=none;curved=1;rounded=0;orthogonalLoop=1;jettySize=auto;html=1;exitX=1;exitY=1;exitDx=0;exitDy=0;fontSize=12;startSize=8;endSize=8;" edge="1" parent="1" source="xgFvjefHa8hZQ6WshzcK-1" target="xgFvjefHa8hZQ6WshzcK-1">
          <mxGeometry relative="1" as="geometry" />
        </mxCell>
        <mxCell id="xgFvjefHa8hZQ6WshzcK-7" value="" style="rounded=0;whiteSpace=wrap;html=1;" vertex="1" parent="1">
          <mxGeometry x="567" y="7" width="921" height="540" as="geometry" />
        </mxCell>
        <mxCell id="xgFvjefHa8hZQ6WshzcK-8" value="section : container" style="text;strokeColor=none;fillColor=none;html=1;align=center;verticalAlign=middle;whiteSpace=wrap;rounded=0;fontSize=16;" vertex="1" parent="1">
          <mxGeometry x="1209" y="253" width="215" height="179" as="geometry" />
        </mxCell>
        <mxCell id="xgFvjefHa8hZQ6WshzcK-51" value="" style="rounded=1;whiteSpace=wrap;html=1;" vertex="1" parent="1">
          <mxGeometry x="567" y="7" width="383" height="201" as="geometry" />
        </mxCell>
        <mxCell id="xgFvjefHa8hZQ6WshzcK-52" value="" style="rounded=1;whiteSpace=wrap;html=1;rotation=90;" vertex="1" parent="1">
          <mxGeometry x="1023" y="2" width="201" height="211" as="geometry" />
        </mxCell>
        <mxCell id="xgFvjefHa8hZQ6WshzcK-59" value="" style="rounded=1;whiteSpace=wrap;html=1;" vertex="1" parent="1">
          <mxGeometry x="567" y="233" width="383" height="238" as="geometry" />
        </mxCell>
        <mxCell id="xgFvjefHa8hZQ6WshzcK-60" value="" style="rounded=1;whiteSpace=wrap;html=1;" vertex="1" parent="1">
          <mxGeometry x="1019" y="233" width="194" height="133" as="geometry" />
        </mxCell>
        <mxCell id="xgFvjefHa8hZQ6WshzcK-63" value="navbar" style="text;strokeColor=none;fillColor=none;html=1;align=center;verticalAlign=middle;whiteSpace=wrap;rounded=0;fontSize=16;" vertex="1" parent="1">
          <mxGeometry x="949.5" y="-57" width="60" height="30" as="geometry" />
        </mxCell>
        <mxCell id="xgFvjefHa8hZQ6WshzcK-71" value="" style="rounded=0;whiteSpace=wrap;html=1;" vertex="1" parent="1">
          <mxGeometry x="593" y="170" width="240" height="17" as="geometry" />
        </mxCell>
        <mxCell id="xgFvjefHa8hZQ6WshzcK-73" value="" style="rounded=0;whiteSpace=wrap;html=1;" vertex="1" parent="1">
          <mxGeometry x="593" y="134" width="240" height="17" as="geometry" />
        </mxCell>
        <mxCell id="xgFvjefHa8hZQ6WshzcK-64" value="p" style="text;strokeColor=none;fillColor=none;html=1;align=center;verticalAlign=middle;whiteSpace=wrap;rounded=0;fontSize=16;" vertex="1" parent="1">
          <mxGeometry x="655" y="131" width="101" height="16" as="geometry" />
        </mxCell>
        <mxCell id="xgFvjefHa8hZQ6WshzcK-72" value="" style="rounded=0;whiteSpace=wrap;html=1;" vertex="1" parent="1">
          <mxGeometry x="593" y="151" width="240" height="17" as="geometry" />
        </mxCell>
        <mxCell id="xgFvjefHa8hZQ6WshzcK-65" value="p" style="text;strokeColor=none;fillColor=none;html=1;align=center;verticalAlign=middle;whiteSpace=wrap;rounded=0;fontSize=16;" vertex="1" parent="1">
          <mxGeometry x="673.5" y="168" width="64" height="16" as="geometry" />
        </mxCell>
        <mxCell id="xgFvjefHa8hZQ6WshzcK-62" value="h2" style="text;strokeColor=none;fillColor=none;html=1;align=center;verticalAlign=middle;whiteSpace=wrap;rounded=0;fontSize=16;" vertex="1" parent="1">
          <mxGeometry x="655" y="151" width="101" height="16" as="geometry" />
        </mxCell>
        <mxCell id="xgFvjefHa8hZQ6WshzcK-76" style="edgeStyle=none;curved=1;rounded=0;orthogonalLoop=1;jettySize=auto;html=1;exitX=0.75;exitY=1;exitDx=0;exitDy=0;fontSize=12;startSize=8;endSize=8;" edge="1" parent="1" source="xgFvjefHa8hZQ6WshzcK-62" target="xgFvjefHa8hZQ6WshzcK-62">
          <mxGeometry relative="1" as="geometry" />
        </mxCell>
        <mxCell id="xgFvjefHa8hZQ6WshzcK-77" value="" style="rounded=0;whiteSpace=wrap;html=1;" vertex="1" parent="1">
          <mxGeometry x="1018" y="7" width="211" height="28" as="geometry" />
        </mxCell>
        <mxCell id="xgFvjefHa8hZQ6WshzcK-78" value="h2" style="text;strokeColor=none;fillColor=none;html=1;align=center;verticalAlign=middle;whiteSpace=wrap;rounded=0;fontSize=16;" vertex="1" parent="1">
          <mxGeometry x="1084.5" y="11" width="60" height="30" as="geometry" />
        </mxCell>
        <mxCell id="xgFvjefHa8hZQ6WshzcK-79" value="" style="rounded=1;whiteSpace=wrap;html=1;" vertex="1" parent="1">
          <mxGeometry x="1037" y="41" width="169" height="38" as="geometry" />
        </mxCell>
        <mxCell id="xgFvjefHa8hZQ6WshzcK-82" value="" style="rounded=1;whiteSpace=wrap;html=1;" vertex="1" parent="1">
          <mxGeometry x="1037" y="88.5" width="169" height="38" as="geometry" />
        </mxCell>
        <mxCell id="xgFvjefHa8hZQ6WshzcK-83" value="" style="rounded=1;whiteSpace=wrap;html=1;" vertex="1" parent="1">
          <mxGeometry x="1037" y="134" width="169" height="38" as="geometry" />
        </mxCell>
        <mxCell id="xgFvjefHa8hZQ6WshzcK-84" value="flex" style="text;strokeColor=none;fillColor=none;html=1;align=center;verticalAlign=middle;whiteSpace=wrap;rounded=0;fontSize=16;" vertex="1" parent="1">
          <mxGeometry x="1093.5" y="178" width="60" height="30" as="geometry" />
        </mxCell>
      </root>
    </mxGraphModel>
  </diagram>
</mxfile>
